<svg baseProfile="full" height="28" version="1.1" viewBox="0 0 282 28" width="282" xmlns="http://www.w3.org/2000/svg" xmlns:ev="http://www.w3.org/2001/xml-events" xmlns:xlink="http://www.w3.org/1999/xlink"><defs /><g transform="translate(-12.739090977852682, -6.827954332219823)"><path d="M 60.508,20.418 L 56.4846,20.418 L 56.4846,19.53519 C 56.4846,17.94929 55.1994,16.66799 53.6174,16.66799 L 46.386900000000004,16.66799 C 44.801,16.66799 43.51970000000001,17.95319 43.51970000000001,19.53519 L 43.51970000000001,20.418 L 39.496300000000005,20.418 C 34.8674,20.418 31.097900000000003,24.1836 31.097900000000003,28.8164 L 31.097900000000003,76.6254 C 31.097900000000003,81.2504 34.8635,85.0199 39.496300000000005,85.0199 L 60.5193,85.0199 C 65.1482,85.0199 68.9177,81.2543 68.9177,76.62540000000001 L 68.909887,28.816400000000016 C 68.909887,24.187500000000014 65.14428699999999,20.418000000000013 60.511486999999995,20.418000000000013 L 60.508,20.418 M 65.5314,76.62100000000001 C 65.5314,79.3944 63.2736,81.6444 60.508,81.6444 L 39.485,81.6444 C 36.7116,81.6444 34.4616,79.3905 34.4616,76.62100000000001 L 34.4616,28.81600000000001 C 34.4616,26.04260000000001 36.7194,23.79260000000001 39.485,23.79260000000001 L 60.507999999999996,23.79260000000001 C 63.2814,23.79260000000001 65.53139999999999,26.05040000000001 65.53139999999999,28.81600000000001 L 65.53139999999999,76.625 L 65.5314,76.62100000000001" fill="rgb(0,0,0)" transform="scale(0.4096447341412986)" /><path d="M 52.395,37.246 L 40.833000000000006,53.172000000000004 L 47.852500000000006,53.172000000000004 L 47.852500000000006,67.13300000000001 L 58.87950000000001,50.42200000000001 L 52.395100000000006,50.42200000000001 L 52.395,37.246" fill="rgb(0,0,0)" transform="scale(0.4096447341412986)" /><path d="M13.814585908529047 21.999999999999996Q11.475896168108775 21.999999999999996 9.46353522867738 21.33374536464771Q7.451174289245983 20.667490729295423 5.955500618046972 19.41656365883807Q4.4598269468479605 18.165636588380714 3.630407911001236 16.343634116192828Q2.800988875154512 14.521631644004941 2.800988875154512 12.155747836835598Q2.800988875154512 10.061804697156981 3.657601977750309 8.280593325092706Q4.514215080346106 6.499381953028429 6.064276885043263 5.180469715698392Q7.6143386897404195 3.861557478368354 9.721878862793572 3.1273176761433845Q11.829419035846724 2.393077873918415 14.30407911001236 2.393077873918415Q16.289245982694684 2.393077873918415 17.948084054388133 2.8417799752781185Q19.60692212608158 3.290482076637822 20.91223733003708 3.9975278121137183Q22.21755253399258 4.704573547589614 23.006180469715698 5.547589616810875L20.477132262051914 8.321384425216314Q19.66131025957973 7.668726823238565 18.709517923362178 7.165636588380716Q17.757725587144623 6.662546353522867 16.629171817058097 6.363411619283064Q15.500618046971569 6.064276885043261 14.276885043263288 6.064276885043261Q12.754017305315204 6.064276885043261 11.435105067985166 6.526576019777501Q10.116192830655129 6.9888751545117405 9.123609394313966 7.804697156983929Q8.131025957972806 8.620519159456117 7.587144622991348 9.735475896168108Q7.043263288009888 10.850432632880096 7.043263288009888 12.155747836835598Q7.043263288009888 13.705809641532754 7.627935723114957 14.875154511742892Q8.212608158220025 16.044499381953027 9.218788627935723 16.79233621755253Q10.224969097651421 17.54017305315204 11.503090234857849 17.920889987639057Q12.781211372064277 18.30160692212608 14.222496909765141 18.30160692212608Q15.555006180469714 18.30160692212608 16.72435105067985 18.02966625463535Q17.893695920889986 17.75772558714462 18.750309023485784 17.241038318912235Q19.60692212608158 16.72435105067985 20.082818294190357 16.017305315203956Q20.558714462299132 15.310259579728058 20.53152039555006 14.49443757725587L20.50432632880099 13.977750309023484L21.07540173053152 14.902348578491964H13.977750309023484V11.53028430160692H24.556242274412853Q24.583436341161928 11.911001236093941 24.610630407911 12.318912237330036Q24.63782447466007 12.726823238566128 24.65142150803461 13.053152039555004Q24.665018541409147 13.379480840543879 24.665018541409147 13.515451174289243Q24.665018541409147 15.582200247218786 23.876390605686034 17.159456118665016Q23.087762669962917 18.736711990111246 21.64647713226205 19.81087762669963Q20.205191594561185 20.885043263288008 18.206427688504327 21.442521631644002Q16.207663782447465 21.999999999999996 13.814585908529047 21.999999999999996Z M32.03461063040791 21.728059332509268V7.342398022249689H35.7601977750309L35.896168108776266 12.482076637824473L34.83559950556242 12.18294190358467Q35.243510506798515 10.768850432632878 36.195302843016066 9.585908529048204Q37.14709517923362 8.402966625463533 38.42521631644004 7.72311495673671Q39.703337453646476 7.0432632880098875 41.0902348578492 7.0432632880098875Q41.93325092707045 7.0432632880098875 42.74907292954264 7.220024721878861Q43.56489493201483 7.396786155747835 44.08158220024722 7.695920889987637L43.04820766378245 11.829419035846723Q42.53152039555006 11.503090234857847 41.71569839307787 11.312731767614338Q40.899876390605684 11.122373300370826 40.138442521631646 11.122373300370826Q39.132262051915944 11.122373300370826 38.34363411619283 11.435105067985166Q37.55500618046972 11.747836835599504 37.011124845488254 12.291718170580962Q36.4672435105068 12.83559950556242 36.195302843016066 13.501854140914707Q35.92336217552534 14.168108776266994 35.92336217552534 14.87515451174289V21.728059332509268Z M58.38566131025958 21.999999999999996Q55.61186650185414 21.999999999999996 53.49072929542645 21.048207663782442Q51.369592088998765 20.09641532756489 50.21384425216316 18.42398022249691Q49.05809641532756 16.751545117428922 49.05809641532756 14.630407911001234Q49.05809641532756 12.862793572311494 49.73794808405439 11.462299134734238Q50.417799752781214 10.061804697156981 51.655129789864034 9.082818294190357Q52.89245982694685 8.10383189122373 54.51050679851669 7.559950556242272Q56.128553770086526 7.016069221260814 57.92336217552534 7.016069221260814Q59.69097651421508 7.016069221260814 61.21384425216316 7.559950556242272Q62.736711990111246 8.10383189122373 63.87886279357231 9.055624227441283Q65.02101359703337 10.007416563658836 65.64647713226205 11.326328800988872Q66.27194066749072 12.64524103831891 66.21755253399257 14.195302843016067L66.19035846724351 15.52781211372064H51.886279357231146L51.26081582200247 13.025957972805932H63.00865265760198L62.57354758961681 13.515451174289243V12.91718170580964Q62.46477132262052 12.128553770086524 61.81211372064277 11.530284301606919Q61.15945611866502 10.932014833127315 60.15327564894932 10.592088998763904Q59.14709517923362 10.252163164400493 57.977750309023484 10.252163164400493Q56.48207663782448 10.252163164400493 55.28553770086526 10.673671199011123Q54.088998763906055 11.095179233621753 53.3955500618047 11.99258343634116Q52.702101359703335 12.889987639060566 52.702101359703335 14.331273176761432Q52.702101359703335 15.60939431396786 53.47713226205191 16.601977750309022Q54.25216316440049 17.594561186650182 55.679851668726826 18.13844252163164Q57.10754017305315 18.6823238566131 58.98393077873918 18.6823238566131Q60.778739184177994 18.6823238566131 61.94808405438813 18.247218788627933Q63.11742892459827 17.812113720642767 63.87886279357231 17.322620519159454L65.5920889987639 19.87886279357231Q64.6946847960445 20.53152039555006 63.52533992583436 21.007416563658836Q62.35599505562423 21.48331273176761 61.050679851668725 21.741656365883806Q59.745364647713224 21.999999999999996 58.38566131025958 21.999999999999996Z M81.06551297898639 21.999999999999996Q78.29171817058096 21.999999999999996 76.17058096415327 21.048207663782442Q74.04944375772558 20.09641532756489 72.89369592088998 18.42398022249691Q71.73794808405438 16.751545117428922 71.73794808405438 14.630407911001234Q71.73794808405438 12.862793572311494 72.4177997527812 11.462299134734238Q73.09765142150803 10.061804697156981 74.33498145859085 9.082818294190357Q75.57231149567366 8.10383189122373 77.1903584672435 7.559950556242272Q78.80840543881334 7.016069221260814 80.60321384425215 7.016069221260814Q82.37082818294189 7.016069221260814 83.89369592088998 7.559950556242272Q85.41656365883807 8.10383189122373 86.55871446229914 9.055624227441283Q87.7008652657602 10.007416563658836 88.32632880098888 11.326328800988872Q88.95179233621755 12.64524103831891 88.8974042027194 14.195302843016067L88.87021013597032 15.52781211372064H74.56613102595797L73.9406674907293 13.025957972805932H85.6885043263288L85.25339925834362 13.515451174289243V12.91718170580964Q85.14462299134733 12.128553770086524 84.49196538936958 11.530284301606919Q83.83930778739183 10.932014833127315 82.83312731767614 10.592088998763904Q81.82694684796044 10.252163164400493 80.6576019777503 10.252163164400493Q79.16192830655129 10.252163164400493 77.96538936959209 10.673671199011123Q76.76885043263287 11.095179233621753 76.07540173053152 11.99258343634116Q75.38195302843016 12.889987639060566 75.38195302843016 14.331273176761432Q75.38195302843016 15.60939431396786 76.15698393077874 16.601977750309022Q76.93201483312731 17.594561186650182 78.35970333745364 18.13844252163164Q79.78739184177996 18.6823238566131 81.663782447466 18.6823238566131Q83.45859085290482 18.6823238566131 84.62793572311494 18.247218788627933Q85.79728059332508 17.812113720642767 86.55871446229912 17.322620519159454L88.27194066749072 19.87886279357231Q87.37453646477132 20.53152039555006 86.20519159456119 21.007416563658836Q85.03584672435105 21.48331273176761 83.73053152039554 21.741656365883806Q82.42521631644004 21.999999999999996 81.06551297898639 21.999999999999996Z M96.56613102595797 21.728059332509268V7.342398022249689H100.26452410383189L100.37330037082818 11.067985166872681L99.31273176761434 11.312731767614336Q99.7478368355995 10.197775030902347 100.65883807169345 9.232385661310257Q101.56983930778739 8.266996291718169 102.90234857849197 7.655129789864028Q104.23485784919654 7.0432632880098875 105.8665018541409 7.0432632880098875Q107.90605686032139 7.0432632880098875 109.2929542645241 7.8318912237330025Q110.67985166872683 8.620519159456117 111.40049443757727 9.9938195302843Q112.12113720642769 11.367119901112483 112.12113720642769 13.134734239802222V21.728059332509268H108.25957972805932V13.814585908529047Q108.25957972805932 12.754017305315202 107.78368355995055 11.978986402966623Q107.30778739184177 11.203955500618045 106.49196538936958 10.782447466007415Q105.6761433868974 10.360939431396785 104.61557478368356 10.360939431396785Q103.63658838071693 10.360939431396785 102.87515451174289 10.687268232385659Q102.11372064276885 11.013597033374534 101.55624227441285 11.557478368355993Q100.99876390605687 12.101359703337451 100.7132262051916 12.726823238566128Q100.42768850432633 13.352286773794805 100.42768850432633 13.977750309023484V21.728059332509268H98.52410383189122Q97.62669962917181 21.728059332509268 97.1372064276885 21.728059332509268Q96.64771322620518 21.728059332509268 96.56613102595797 21.728059332509268Z  M133.16934487021013 21.728059332509268V2.6922126081582185H136.89493201483313L145.10754017305314 13.597033374536462L142.90482076637824 13.56983930778739L151.11742892459827 2.6922126081582185H154.7886279357231V21.728059332509268H150.7911001236094V15.011124845488254Q150.7911001236094 12.699629171817056 150.8998763906057 10.714462299134732Q151.00865265760197 8.729295426452408 151.33498145859085 6.716934487021012L151.77008652657602 8.076637824474659L144.88998763906056 16.83312731767614H143.09517923362176L136.16069221260815 8.049443757725586L136.6229913473424 6.716934487021012Q136.94932014833128 8.702101359703336 137.05809641532755 10.673671199011123Q137.16687268232386 12.64524103831891 137.16687268232386 15.011124845488254V21.728059332509268Z M170.94190358467242 21.999999999999996Q168.2496909765142 21.999999999999996 166.16934487021013 21.048207663782442Q164.08899876390603 20.09641532756489 162.9196538936959 18.396786155747833Q161.75030902348576 16.697156983930775 161.75030902348576 14.521631644004941Q161.75030902348576 12.318912237330036 162.9196538936959 10.632880098887513Q164.08899876390603 8.946847960444991 166.16934487021013 7.995055624227439Q168.2496909765142 7.0432632880098875 170.94190358467242 7.0432632880098875Q173.63411619283062 7.0432632880098875 175.68726823238563 7.995055624227439Q177.74042027194065 8.946847960444991 178.9233621755253 10.632880098887513Q180.10630407910998 12.318912237330036 180.10630407910998 14.521631644004941Q180.10630407910998 16.697156983930775 178.9233621755253 18.396786155747833Q177.74042027194065 20.09641532756489 175.68726823238563 21.048207663782442Q173.63411619283062 21.999999999999996 170.94190358467242 21.999999999999996ZM170.94190358467242 18.627935723114955Q172.43757725587142 18.627935723114955 173.62051915945608 18.11124845488257Q174.80346106304077 17.594561186650182 175.52410383189118 16.65636588380717Q176.24474660074162 15.718170580964152 176.1903584672435 14.521631644004941Q176.24474660074162 13.29789864029666 175.52410383189118 12.373300370828181Q174.80346106304077 11.448702101359702 173.62051915945608 10.91841779975278Q172.43757725587142 10.388133498145857 170.94190358467242 10.388133498145857Q169.4462299134734 10.388133498145857 168.23609394313965 10.91841779975278Q167.0259579728059 11.448702101359702 166.33250927070455 12.373300370828181Q165.63906056860318 13.29789864029666 165.66625463535226 14.521631644004941Q165.63906056860318 15.718170580964152 166.33250927070455 16.65636588380717Q167.0259579728059 17.594561186650182 168.23609394313965 18.11124845488257Q169.4462299134734 18.627935723114955 170.94190358467242 18.627935723114955Z M189.3250927070457 21.728059332509268V3.1001236093943128H193.18665018541407V21.728059332509268ZM185.46353522867736 10.796044499381951V7.342398022249689H197.72805933250925V10.796044499381951Z M205.66872682323856 21.728059332509268V7.342398022249689H209.5302843016069V21.728059332509268ZM207.59950556242273 4.215080346106301Q206.48454882571073 4.215080346106301 205.85908529048206 3.657601977750307Q205.23362175525338 3.1001236093943128 205.23362175525338 2.093943139678615Q205.23362175525338 1.1693448702101357 205.8726823238566 0.5846724351050678Q206.5117428924598 0.0 207.59950556242273 0.0Q208.71446229913474 0.0 209.3399258343634 0.5574783683559943Q209.9653893695921 1.1149567367119886 209.9653893695921 2.093943139678615Q209.9653893695921 3.018541409147094 209.32632880098888 3.6168108776266976Q208.68726823238566 4.215080346106301 207.59950556242273 4.215080346106301Z M226.36341161928306 21.999999999999996Q223.67119901112483 21.999999999999996 221.59085290482074 21.048207663782442Q219.51050679851667 20.09641532756489 218.34116192830652 18.396786155747833Q217.1718170580964 16.697156983930775 217.1718170580964 14.521631644004941Q217.1718170580964 12.318912237330036 218.34116192830652 10.632880098887513Q219.51050679851667 8.946847960444991 221.59085290482074 7.995055624227439Q223.67119901112483 7.0432632880098875 226.36341161928306 7.0432632880098875Q229.05562422744129 7.0432632880098875 231.1087762669963 7.995055624227439Q233.1619283065513 8.946847960444991 234.34487021013598 10.632880098887513Q235.52781211372064 12.318912237330036 235.52781211372064 14.521631644004941Q235.52781211372064 16.697156983930775 234.34487021013598 18.396786155747833Q233.1619283065513 20.09641532756489 231.1087762669963 21.048207663782442Q229.05562422744129 21.999999999999996 226.36341161928306 21.999999999999996ZM226.36341161928306 18.627935723114955Q227.85908529048206 18.627935723114955 229.04202719406675 18.11124845488257Q230.2249690976514 17.594561186650182 230.94561186650185 16.65636588380717Q231.66625463535226 15.718170580964152 231.61186650185414 14.521631644004941Q231.66625463535226 13.29789864029666 230.94561186650185 12.373300370828181Q230.2249690976514 11.448702101359702 229.04202719406675 10.91841779975278Q227.85908529048206 10.388133498145857 226.36341161928306 10.388133498145857Q224.86773794808403 10.388133498145857 223.6576019777503 10.91841779975278Q222.44746600741655 11.448702101359702 221.7540173053152 12.373300370828181Q221.06056860321382 13.29789864029666 221.0877626699629 14.521631644004941Q221.06056860321382 15.718170580964152 221.7540173053152 16.65636588380717Q222.44746600741655 17.594561186650182 223.6576019777503 18.11124845488257Q224.86773794808403 18.627935723114955 226.36341161928306 18.627935723114955Z M243.06056860321382 21.728059332509268V7.342398022249689H246.75896168108775L246.86773794808406 11.067985166872681L245.8071693448702 11.312731767614336Q246.24227441285538 10.197775030902347 247.15327564894932 9.232385661310257Q248.06427688504326 8.266996291718169 249.39678615574783 7.655129789864028Q250.7292954264524 7.0432632880098875 252.3609394313968 7.0432632880098875Q254.40049443757724 7.0432632880098875 255.78739184177994 7.8318912237330025Q257.17428924598266 8.620519159456117 257.8949320148331 9.9938195302843Q258.61557478368354 11.367119901112483 258.61557478368354 13.134734239802222V21.728059332509268H254.7540173053152V13.814585908529047Q254.7540173053152 12.754017305315202 254.27812113720643 11.978986402966623Q253.80222496909764 11.203955500618045 252.98640296662546 10.782447466007415Q252.17058096415326 10.360939431396785 251.11001236093944 10.360939431396785Q250.1310259579728 10.360939431396785 249.36959208899876 10.687268232385659Q248.6081582200247 11.013597033374534 248.05067985166872 11.557478368355993Q247.49320148331273 12.101359703337451 247.20766378244747 12.726823238566128Q246.92212608158218 13.352286773794805 246.92212608158218 13.977750309023484V21.728059332509268H245.01854140914708Q244.12113720642768 21.728059332509268 243.63164400494435 21.728059332509268Q243.14215080346105 21.728059332509268 243.06056860321382 21.728059332509268Z " fill="rgb(0,0,0)" transform="translate(25.492681916277107, 9.827954332219823)" /></g></svg>